<svg id="Layer_1" data-name="Layer 1" xmlns="http://www.w3.org/2000/svg" viewBox="0 0 27.7 104.41" display="none">
  <defs>
    <style>.cls-1,.cls-2{fill:#414042;}.cls-1{fill-rule:evenodd;}</style>

    <g id="twitter">
      <path class="cls-1" d="M20.14,1.59h.92A5.85,5.85,0,0,1,24,2.72c.21.16.53.59.72.63a3,3,0,0,0,1-.24A11.6,11.6,0,0,0,28.29,2a5.76,5.76,0,0,1-2.44,3.11A11,11,0,0,0,29,4.24c0,.07,0,.14-.07.19a12.12,12.12,0,0,1-2.68,2.73,16.36,16.36,0,0,1-4.32,11.75,15.39,15.39,0,0,1-11.05,5H9.57a15.65,15.65,0,0,1-8-2.53,11.18,11.18,0,0,0,8.11-2.22s.16,0,.12-.12a5.54,5.54,0,0,1-5.19-3.91A5.43,5.43,0,0,0,7.13,15,5.52,5.52,0,0,1,2.67,9.45a5.68,5.68,0,0,0,2.46.68A6.07,6.07,0,0,1,2.91,7,6.19,6.19,0,0,1,3,3.54a3.94,3.94,0,0,1,.43-.92s0,.05.12.14A17.44,17.44,0,0,0,5.63,4.82a16.11,16.11,0,0,0,9.43,3.69,5.77,5.77,0,0,1,1.09-4.78A5.67,5.67,0,0,1,20.14,1.59Z" transform="translate(-1.3 -1.59)"/>
    </g>

    <g id="email">
      <path class="cls-2" d="M1.89,106a.59.59,0,0,1-.58-.5L8.41,98.4l4.16,4.16a3.34,3.34,0,0,0,4.73,0l4.16-4.16,7.11,7.11A.59.59,0,0,1,28,106Zm21.46-9.49,5.23-5.23v10.46ZM1.3,91.28l5.23,5.23L1.3,101.74Zm13.64,9.58a.67.67,0,0,1-.48-.2L1.31,87.52a.59.59,0,0,1,.58-.5H28a.59.59,0,0,1,.58.5L15.42,100.67A.67.67,0,0,1,14.94,100.87Z" transform="translate(-1.3 -1.59)"/>
    </g>

    <g id="instagram">
      <path class="cls-1" d="M12.8,2.9c3.3,0,3.7,0,5,0.1C19,3,19.7,3.2,20.1,3.4c0.6,0.2,1,0.5,1.4,0.9c0.4,0.4,0.7,0.9,0.9,1.4 c0.2,0.4,0.4,1.1,0.4,2.3c0.1,1.3,0.1,1.7,0.1,5s0,3.7-0.1,5c-0.1,1.2-0.3,1.9-0.4,2.3c-0.2,0.6-0.5,1-0.9,1.4 c-0.4,0.4-0.9,0.7-1.4,0.9c-0.4,0.2-1.1,0.4-2.3,0.4c-1.3,0.1-1.7,0.1-5,0.1s-3.7,0-5-0.1c-1.2-0.1-1.9-0.3-2.3-0.4 c-0.6-0.2-1-0.5-1.4-0.9c-0.4-0.4-0.7-0.9-0.9-1.4c-0.2-0.4-0.4-1.1-0.4-2.3c-0.1-1.3-0.1-1.7-0.1-5s0-3.7,0.1-5 c0.1-1.2,0.3-1.9,0.4-2.3c0.2-0.6,0.5-1,0.9-1.4c0.4-0.4,0.9-0.7,1.4-0.9C5.9,3.2,6.5,3,7.8,3C9.1,2.9,9.5,2.9,12.8,2.9 M12.8,0.7 c-3.4,0-3.8,0-5.1,0.1C6.3,0.8,5.4,1,4.6,1.3C3.8,1.6,3.1,2.1,2.4,2.8C1.7,3.5,1.3,4.2,1,5C0.7,5.8,0.5,6.7,0.4,8 c-0.1,1.3-0.1,1.8-0.1,5.1c0,3.4,0,3.8,0.1,5.1c0.1,1.3,0.3,2.2,0.6,3c0.3,0.8,0.7,1.5,1.4,2.2c0.7,0.7,1.4,1.1,2.2,1.4 c0.8,0.3,1.7,0.5,3,0.6c1.3,0.1,1.8,0.1,5.1,0.1s3.8,0,5.1-0.1c1.3-0.1,2.2-0.3,3-0.6c0.8-0.3,1.5-0.7,2.2-1.4 c0.7-0.7,1.1-1.4,1.4-2.2c0.3-0.8,0.5-1.7,0.6-3c0.1-1.3,0.1-1.8,0.1-5.1s0-3.8-0.1-5.1c-0.1-1.3-0.3-2.2-0.6-3 c-0.3-0.8-0.7-1.5-1.4-2.2c-0.7-0.7-1.4-1.1-2.2-1.4c-0.8-0.3-1.7-0.5-3-0.6C16.6,0.7,16.2,0.7,12.8,0.7L12.8,0.7z"/>
    <path class="cls-1" d="M12.8,6.7c-3.5,0-6.4,2.9-6.4,6.4c0,3.5,2.9,6.4,6.4,6.4s6.4-2.9,6.4-6.4C19.2,9.6,16.3,6.7,12.8,6.7z
    M12.8,17.3c-2.3,0-4.2-1.9-4.2-4.2c0-2.3,1.9-4.2,4.2-4.2c2.3,0,4.2,1.9,4.2,4.2C16.9,15.4,15.1,17.3,12.8,17.3z"/>
    <circle class="cls-1" cx="19.4" cy="6.5" r="1.5"/>
    </g>

    <g id="facebook">
      <path class="cls-2" d="M24.2,56.62H5.94a4.58,4.58,0,0,0-4.56,4.56V79.44A4.58,4.58,0,0,0,5.94,84H24.2a4.57,4.57,0,0,0,4.56-4.56V61.19A4.57,4.57,0,0,0,24.2,56.62Zm-4.71,6.79H17c-.29,0-.84.16-.84.71v2.7h3.35v3.35H16.14V80.22H12.79V70.16H9.43V66.81h3.35V64.76c0-2.77,1.61-4.65,3.92-4.65h2.78Z" transform="translate(-1.3 -1.59)"/>
    </g>

    <g id="linkedin">
      <path class="cls-2" d="M133.3,0H10.6C4.8,0,0,4.6,0,10.4v123.2c0,5.7,4.8,10.4,10.6,10.4h122.7c5.9,0,10.7-4.7,10.7-10.4V10.4 C144,4.6,139.2,0,133.3,0z M42.7,122.7H21.3V54h21.4V122.7z M32,44.6c-6.8,0-12.4-5.6-12.4-12.4c0-6.8,5.5-12.4,12.4-12.4 c6.8,0,12.4,5.5,12.4,12.4C44.4,39,38.9,44.6,32,44.6z M122.7,122.7h-21.3V89.3c0-8-0.1-18.2-11.1-18.2 c-11.1,0-12.8,8.7-12.8,17.6v34H56.1V54h20.5v9.4h0.3c2.8-5.4,9.8-11.1,20.2-11.1c21.6,0,25.6,14.2,25.6,32.7V122.7z"/>
    </g>

    <g id="github">
      <path class="cls-2" d="M16.3,0C7.3,0,0,7.3,0,16.3c0,7.2,4.7,13.3,11.1,15.5c0.8,0.1,1.1-0.4,1.1-0.8c0-0.4,0-1.4,0-2.8 c-4.5,1-5.5-2.2-5.5-2.2c-0.7-1.9-1.8-2.4-1.8-2.4c-1.5-1,0.1-1,0.1-1c1.6,0.1,2.5,1.7,2.5,1.7c1.5,2.5,3.8,1.8,4.7,1.4 c0.1-1.1,0.6-1.8,1-2.2c-3.6-0.4-7.4-1.8-7.4-8.1c0-1.8,0.6-3.2,1.7-4.4C7.4,10.7,6.8,9,7.7,6.8c0,0,1.4-0.4,4.5,1.7 c1.3-0.4,2.7-0.5,4.1-0.5c1.4,0,2.8,0.2,4.1,0.5c3.1-2.1,4.5-1.7,4.5-1.7c0.9,2.2,0.3,3.9,0.2,4.3c1,1.1,1.7,2.6,1.7,4.4 c0,6.3-3.8,7.6-7.4,8c0.6,0.5,1.1,1.5,1.1,3c0,2.2,0,3.9,0,4.5c0,0.4,0.3,0.9,1.1,0.8c6.5-2.2,11.1-8.3,11.1-15.5 C32.6,7.3,25.3,0,16.3,0z"/>
    </g>
  </defs>
</svg>